# xmcd
#
# Track frame offsets: 
#        150
#        16475
#        32700
#        48795
#        64832
#        80992
#        97187
#        113195
#        129232
#        145342
#
# Disc length: 2148 seconds
#
# Revision: 3
# Processed by: cddbd v1.5.2PL0 Copyright (c) Steve Scherf et al.
# Submitted via: ExactAudioCopyFreeDBPlugin 1.0
#
DISCID=8a08620a
DTITLE=Osamu Shoji - DIGITAL TRIP 1800 LUPIN the 3rd SYNTHESIZER FANTA
DTITLE=SY
DYEAR=1993
DGENRE=Anime
TTITLE0=TAKE A CHANCE!!~DANGEROUS ZONE
TTITLE1=THEME FROM LUPIN III
TTITLE2=FIRE TREASURE
TTITLE3="ZANTETSUKEN"
TTITLE4=FUNNY WALK IN OLD FASHION~LOVIN' YOU(LUCKY)
TTITLE5=TORNADO
TTITLE6=LOVE THEME
TTITLE7=SUPER HERO
TTITLE8=LOVE SQUALL~I MISS YOU BABE(YES, I DO)
TTITLE9=MYSTERIOUS JOURNEY
EXTD=YEAR: 1993
EXTT0=frisco kid
EXTT1=mr.easy/baby cham
EXTT2=beenie man
EXTT3=wayne wonder
EXTT4=alley cat
EXTT5=silver cat
EXTT6=lady saw
EXTT7=tanya stephens
EXTT8=spragga benz
EXTT9=wayne wonder/baby cham
PLAYORDER=
